<?xml version="1.0" encoding="UTF-8"?>
<!DOCTYPE svg PUBLIC "-//W3C//DTD SVG 1.1//EN" "http://www.w3.org/Graphics/SVG/1.1/DTD/svg11.dtd">
<!-- Creator: CorelDRAW 2019 (64-Bit) -->
<svg xmlns="http://www.w3.org/2000/svg" xml:space="preserve" width="320px" height="107px" version="1.1" style="shape-rendering:geometricPrecision; text-rendering:geometricPrecision; image-rendering:optimizeQuality; fill-rule:evenodd; clip-rule:evenodd"
viewBox="0 0 6873 2296"
 xmlns:xlink="http://www.w3.org/1999/xlink">
 <defs>
  <style type="text/css">
   <![CDATA[
    .fil3 {fill:#CEB43C}
    .fil2 {fill:#712B33}
    .fil0 {fill:#712B33;fill-rule:nonzero}
    .fil1 {fill:#712B33}
   ]]>
  </style>
 </defs>
 <g id="Capa_x0020_1">
  <metadata id="CorelCorpID_0Corel-Layer"/>
  <g id="_2214751636064">
   <path class="fil0" d="M6513 1298c0,41 11,73 32,96 20,23 46,34 77,34 30,0 55,-11 75,-33 20,-22 30,-54 30,-95 0,-37 -10,-66 -30,-88 -20,-22 -46,-33 -77,-33 -36,0 -63,12 -80,38 -18,25 -27,52 -27,81zm14 -330c0,30 9,53 25,69 17,17 39,25 66,25 28,0 50,-8 67,-25 16,-17 25,-40 25,-69 0,-28 -8,-50 -25,-67 -16,-16 -38,-25 -65,-25 -29,0 -51,9 -68,25 -16,17 -25,40 -25,67zm-30 149c-38,-17 -66,-39 -83,-67 -18,-28 -26,-59 -26,-92 0,-58 20,-105 60,-143 40,-37 97,-56 170,-56 73,0 130,19 170,56 40,38 60,85 60,143 0,35 -9,67 -28,95 -18,28 -44,49 -78,64 43,17 75,42 98,75 22,33 33,71 33,114 0,71 -23,129 -68,173 -45,45 -105,67 -180,67 -70,0 -128,-18 -174,-55 -55,-44 -82,-103 -82,-179 0,-42 10,-80 30,-115 21,-35 53,-62 98,-80zm-729 211l143 -17c5,36 17,64 37,84 19,19 43,29 71,29 31,0 56,-12 77,-35 20,-23 31,-54 31,-94 0,-37 -10,-66 -30,-88 -20,-21 -44,-32 -73,-32 -18,0 -41,3 -67,11l17 -120c39,1 69,-7 90,-26 21,-18 32,-43 32,-73 0,-26 -8,-47 -23,-62 -16,-16 -36,-23 -62,-23 -25,0 -46,8 -64,26 -18,17 -29,43 -33,77l-135 -23c9,-47 24,-85 43,-113 19,-28 45,-50 79,-66 34,-16 73,-24 115,-24 72,0 130,23 174,70 36,38 54,81 54,128 0,68 -37,122 -111,162 44,10 79,31 106,64 26,33 39,73 39,119 0,67 -25,125 -74,173 -49,47 -110,71 -183,71 -70,0 -127,-20 -173,-60 -46,-40 -72,-93 -80,-158zm-216 204l-147 0 0 -556c-53,50 -117,88 -190,112l0 -134c39,-13 80,-37 125,-72 45,-35 76,-76 93,-123l119 0 0 773z"/>
   <path class="fil0" d="M4489 1375l148 -22c6,28 19,50 38,65 20,14 47,22 81,22 38,0 67,-7 86,-21 13,-10 20,-23 20,-40 0,-11 -4,-20 -11,-27 -7,-7 -24,-14 -49,-20 -119,-26 -195,-50 -226,-72 -45,-30 -67,-72 -67,-125 0,-49 20,-89 58,-122 38,-33 97,-50 177,-50 76,0 133,13 170,38 37,25 62,62 76,110l-138 26c-6,-22 -17,-39 -34,-50 -17,-12 -41,-18 -71,-18 -40,0 -67,6 -84,17 -12,7 -17,17 -17,30 0,10 5,19 14,26 14,10 60,24 139,42 78,18 133,40 164,66 31,26 47,62 47,109 0,51 -22,95 -64,132 -43,37 -106,55 -190,55 -76,0 -136,-15 -180,-46 -44,-30 -73,-72 -87,-125zm-246 157l0 -557 147 0 0 557 -147 0zm0 -632l0 -136 147 0 0 136 -147 0zm-462 632l0 -639 -228 0 0 -129 610 0 0 129 -226 0 0 639 -156 0zm-889 0l0 -768 569 0 0 129 -413 0 0 171 384 0 0 130 -384 0 0 208 428 0 0 130 -584 0zm-283 -283l150 46c-23,85 -62,147 -115,188 -54,41 -122,62 -204,62 -103,0 -186,-35 -252,-105 -66,-69 -99,-165 -99,-286 0,-128 33,-227 99,-298 66,-71 153,-106 261,-106 94,0 170,27 229,83 35,33 61,80 79,142l-154 36c-9,-39 -28,-71 -57,-94 -29,-23 -64,-34 -105,-34 -57,0 -103,20 -139,61 -35,41 -53,107 -53,199 0,97 18,166 52,207 36,41 81,62 137,62 41,0 77,-13 107,-39 29,-27 51,-68 64,-124z"/>
   <g>
    <g>
     <path class="fil1" d="M0 1088l0 232 163 45c7,20 11,54 17,77 6,20 19,55 21,73l-89 87c-8,7 -22,22 -29,27 1,12 46,88 55,105l56 101 163 -40 100 105c5,4 9,9 15,14l-46 162 198 119c10,-8 23,-19 31,-29 10,-11 20,-18 30,-28l59 -57c14,3 31,11 46,16 32,10 59,18 92,26 14,3 37,6 49,10l45 163 207 0c3,-17 1,-296 1,-320 -233,26 -430,-58 -560,-158 -76,-58 -111,-99 -168,-176 -19,-26 -36,-57 -51,-86 -113,-215 -114,-491 5,-714 18,-35 63,-105 90,-133 4,-4 5,-7 8,-11 31,-36 66,-69 104,-99 28,-21 54,-40 88,-60 165,-98 297,-107 485,-107 24,0 232,-2 248,1l0 90 450 -262 -450 -261 0 113 -458 0 -43 160 -13 5c-5,1 -8,1 -13,2 -78,16 -93,27 -161,47l-121 -114c-19,7 -177,110 -199,119l47 164c-32,24 -82,78 -108,110 -8,11 -12,6 -39,-1 -35,-8 -103,-27 -132,-32 -5,15 -43,80 -55,101 -9,17 -53,94 -55,102 7,12 45,41 59,59 8,9 50,50 59,55 0,13 -17,60 -21,77 -5,20 -11,59 -17,77l-163 44zm1180 -943l374 0c57,0 104,46 104,104l0 0c0,57 -47,103 -104,103l-374 0c-57,0 -104,-46 -104,-103l0 0c0,-58 47,-104 104,-104z"/>
     <path class="fil2" d="M536 1540c4,2 25,36 30,42 10,15 19,26 31,40 24,28 42,47 70,71 233,205 597,212 837,11 108,-91 183,-208 218,-353 15,-62 20,-131 15,-195 -1,-16 -8,-53 -6,-65 -2,-2 -1,1 -2,-4 -1,-2 -1,-3 -2,-5l-6 -28c-27,-113 -68,-183 -137,-271l-44 -46c-31,-28 -60,-54 -101,-79 -211,-132 -474,-141 -700,2 -36,23 -94,70 -123,104 -51,57 -94,118 -123,192 -74,186 -65,376 28,554 5,10 11,19 15,30z"/>
    </g>
    <g>
     <path class="fil3" d="M1096 1641c18,4 111,2 132,2l0 -377c2,-10 1,-4 3,-6l200 -34 -3 -68 -676 -1 -1 76 345 33 0 375zm318 -350l-124 1 0 350 124 1 0 -352zm-656 353l262 0 -1 -72 -156 0 3 -79 140 0 0 -60 -140 -1 0 -64 146 0 0 -76 -254 -1 0 353zm549 -764l102 0 -1 -39c0,-48 -28,-69 -72,-75 -35,-4 -108,-5 -141,2 -45,10 -60,35 -61,86 -1,49 0,99 0,149 0,53 -2,88 38,109 30,15 99,13 136,11 120,-5 102,-60 101,-195l-133 0 0 63 30 0c1,12 2,49 -1,58 -5,15 -34,14 -47,11 -21,-4 -16,-24 -16,-45 0,-31 -4,-172 4,-182 8,-9 36,-9 49,-4 16,6 11,32 12,51zm-439 -50c47,0 56,-3 56,30 1,28 0,56 0,84 0,124 12,113 -57,113l1 -227zm-108 290c57,0 166,5 215,-9 34,-9 48,-23 55,-58 7,-29 7,-188 1,-218 -7,-34 -22,-50 -54,-59 -50,-14 -159,-9 -217,-9l0 353z"/>
     <path class="fil3" d="M1232 330c25,1 46,4 59,-15 10,-15 14,-41 2,-57 -15,-19 -52,-23 -60,-49 -5,-15 1,-19 3,-30 -39,-30 -73,43 -30,69 17,11 62,27 45,62 -1,4 -4,8 -7,11 -2,2 -3,2 -5,4l-7 5zm204 -65l0 65 41 0c0,-21 -1,-114 1,-125 2,-13 8,-20 9,-28 -59,-29 -51,58 -51,88zm-75 53c-2,-11 -8,-16 -9,-30l0 -80c1,-14 9,-22 10,-31 -53,-22 -51,33 -52,72 0,20 -2,43 7,60 8,14 28,22 44,9zm126 -53c19,0 38,2 50,-8 8,-6 16,-25 17,-41 0,-16 -7,-33 -15,-41 -13,-12 -29,-9 -50,-8 0,0 1,0 1,1l4 3c26,23 19,69 4,85l-8 5c0,1 -1,1 -1,1 0,1 -1,1 -1,1 0,1 -1,1 -1,2zm-127 -1c16,1 38,4 50,-8 25,-23 20,-66 0,-83 -12,-10 -34,-8 -51,-7 16,7 26,24 27,47 0,31 -13,39 -24,48 -2,3 0,1 -2,3zm-2 66c22,1 41,4 54,-8 11,-11 17,-30 16,-49l-43 0c0,15 0,23 -6,36 -7,15 -10,13 -21,21zm-96 -108l40 1c1,-20 -5,-37 -15,-48 -12,-12 -32,-9 -53,-9 13,11 24,15 25,45l2 8c0,1 0,1 0,2 0,0 1,1 1,1zm-27 96c-1,-8 -5,-12 -7,-20 -2,-9 -1,-17 -3,-25l-39 -1c-3,16 2,33 9,42 13,16 30,8 40,4z"/>
    </g>
   </g>
  </g>
 </g>
</svg>
